<svg width="38" height="38" viewBox="0 0 38 38" fill="none" xmlns="http://www.w3.org/2000/svg">
<g id=" ">
<path id="icon/action/card_travel_24px" fill-rule="evenodd" clip-rule="evenodd" d="M26.917 10.2917H31.667C33.4245 10.2917 34.8337 11.7008 34.8337 13.4583V30.875C34.8337 32.6325 33.4245 34.0417 31.667 34.0417H6.33366C4.57616 34.0417 3.16699 32.6325 3.16699 30.875V13.4583C3.16699 11.7008 4.57616 10.2917 6.33366 10.2917H11.0837V7.12499C11.0837 5.36749 12.4928 3.95833 14.2503 3.95833H23.7503C25.5078 3.95833 26.917 5.36749 26.917 7.12499V10.2917ZM23.7503 7.12499H14.2503V10.2917H23.7503V7.12499ZM31.667 30.875H6.33366V27.7083H31.667V30.875ZM6.33366 22.9583H31.667V13.4583H26.917V16.625H23.7503V13.4583H14.2503V16.625H11.0837V13.4583H6.33366V22.9583Z" fill="#86257C"/>
</g>
</svg>
